<svg xmlns="http://www.w3.org/2000/svg" width="13" height="13" viewBox="0 0 13 13">
  <g id="_1" data-name="1" transform="translate(-66.227 0.499)">
    <rect id="Rectangle_412" data-name="Rectangle 412" width="13" height="13" rx="3" transform="translate(66.227 -0.499)" fill="#fff" opacity="0.793"/>
    <g id="multimedia" transform="translate(68.811 -60.874)">
      <g id="Group_2951" data-name="Group 2951" transform="translate(0 64)">
        <g id="Group_2950" data-name="Group 2950">
          <path id="Path_1026" data-name="Path 1026" d="M6.972,64.479c1.081.916,2.979,2.527,3.536,3.029a.329.329,0,0,0,.477,0c.558-.5,2.456-2.114,3.537-3.03a.164.164,0,0,0,.023-.227A.652.652,0,0,0,14.03,64H7.464a.652.652,0,0,0-.515.253A.164.164,0,0,0,6.972,64.479Z" transform="translate(-6.807 -64)" fill="#22274e"/>
          <path id="Path_1027" data-name="Path 1027" d="M7.784,126.427a.163.163,0,0,0-.175.024c-1.2,1.017-2.73,2.32-3.211,2.754a.665.665,0,0,1-.916,0c-.513-.462-2.232-1.924-3.211-2.753a.164.164,0,0,0-.27.125V130.7a.657.657,0,0,0,.657.657H7.222a.657.657,0,0,0,.657-.657v-4.128A.164.164,0,0,0,7.784,126.427Z" transform="translate(0 -125.451)" fill="#22274e"/>
        </g>
      </g>
    </g>
  </g>
</svg>
