<svg xmlns="http://www.w3.org/2000/svg" width="13" height="13" viewBox="0 0 13 13">
  <g id="_1" data-name="1" transform="translate(-66.227 0.499)">
    <rect id="Rectangle_412" data-name="Rectangle 412" width="13" height="13" rx="3" transform="translate(66.227 -0.499)" fill="#fff" opacity="0.793"/>
    <path id="Path_671" data-name="Path 671" d="M8.213,5.8l-1.1-1.1a.733.733,0,0,0-1.22.276.75.75,0,0,1-.866.472A3.4,3.4,0,0,1,2.978,3.395a.713.713,0,0,1,.472-.866.733.733,0,0,0,.276-1.22l-1.1-1.1a.786.786,0,0,0-1.063,0L.813.955c-.748.787.079,2.873,1.929,4.723S6.678,8.394,7.465,7.607l.748-.748A.786.786,0,0,0,8.213,5.8Z" transform="translate(68.27 2.122)" fill="#22274e"/>
  </g>
</svg>
